<svg width="1461" height="833" viewBox="0 0 1461 833" fill="none" xmlns="http://www.w3.org/2000/svg">
<path d="M7 12H1447V818.012H7V12Z" fill="#013767"/>
<path d="M1433.06 290.885C1433.3 200.785 1433.54 106.459 1433.95 12L1447 25.0504C1350.52 24.6363 1253.91 24.0469 1161.52 23.2249C1139.07 23.0243 1140.61 22.2744 1134.31 22.1368C1117.09 21.7613 1106.73 22.58 1094.18 22.4314C1033.17 21.727 976.104 21.221 916.256 20.5522C854.606 19.8637 883.768 18.1128 862.347 17.523C820.493 16.4058 856.094 19.073 839.642 19.5279C791.662 19.044 743.254 18.4462 695.188 17.8784C706.922 17.7627 718.659 17.6419 730.522 17.5241C709.572 17.3416 679.588 16.853 714.671 16.4799C706.917 16.2839 699.678 16.0683 691.71 15.883C689.525 16.6468 652.433 16.4937 649.042 16.9012C645.657 17.3099 666.511 17.3527 666.383 17.3897C665 17.925 579.453 16.5865 573.284 16.5096C556.975 16.2574 571.274 15.5457 557.4 15.5189C533.536 15.4884 549.434 17.0953 517.131 14.8789C504.28 15.4621 503.159 15.1114 486.886 14.9832C484.744 14.9661 486.406 15.3327 485.464 15.3365C460.833 15.4443 479.766 14.911 479.638 14.8703C477.401 14.2535 450.969 14.4019 445.4 14.3168C375.528 13.3162 324.331 12.8606 250.602 12.5983C234.663 12.5501 186.121 12.5359 170.698 12.4495C155.486 12.373 163.648 12.2385 155.687 12.156C142.926 12.503 130.752 12.4273 102.103 12.2052C91.4363 12.3416 92.8084 12.2129 72.3728 12.1878C55.3636 12.1855 25.7206 12.0894 7 12C28.4639 12.0771 26.2418 12.0653 50.4048 12.098C58.4483 12.1105 142.325 12.2888 136.084 12.0271C132.828 11.9086 105.028 12.019 103.954 11.9962C97.6992 11.9073 113.214 11.7601 126.967 11.7781C123.54 11.8087 119.411 11.8386 115.726 11.8652C146.615 11.9941 125.374 11.3787 148.85 11.917C151.752 11.9895 150.628 12.0657 155.413 12.1506C156.396 12.1169 150.542 12.0326 155.584 12.0189C160.727 12.0009 170.493 12.1774 171.948 12.0318C174.125 11.8146 152.817 11.9152 151.214 11.9027C151.197 11.9039 151.18 11.905 151.163 11.9062C136.987 11.822 166.593 11.776 168.007 11.7519C177.166 11.6029 170.921 11.5167 184.663 11.3547C192.503 11.2585 212.474 11.2256 219.843 11.1744C227.165 11.1193 215.773 11.0351 220.7 10.9867C225.626 10.9354 231.761 11.0109 237.544 10.9525C240.019 10.9267 239.893 10.7697 241.091 10.7582C253.941 10.6317 245.512 11.0092 257.165 10.9418C264.713 10.9076 290.051 10.4305 272.587 10.4178C280.981 10.335 289.167 10.2606 297.519 10.1815C292.252 10.1548 286.808 10.1497 281.669 10.1183C297.385 10.1106 304.496 9.733 314.346 9.63294C324.2 9.53109 333.033 9.91543 343.871 9.62912C367.006 8.98963 309.72 9.62201 302.609 9.59853C299.836 9.59224 310.48 9.18774 312.119 9.16149C319.399 9.05557 328.012 9.2244 333.624 9.17062C353.717 8.97294 366.019 8.51835 385.168 8.26716C450.374 7.42866 531.263 6.38852 593.042 5.70245C616.049 5.44158 629.892 5.97097 640.217 5.87283C664.373 5.6365 667.332 5.01536 688.402 4.79711C719.763 4.46438 763.943 4.66955 790.12 4.61337C808.242 4.57185 824.647 3.76858 829.361 3.71189C894.867 2.94673 974.556 2.35887 1028.84 1.97941C1054.37 1.79388 1066.49 2.64892 1071.76 2.59099C1094.42 2.33764 1088.35 1.56366 1106.72 1.52676C1116.64 1.50601 1118.5 2.28636 1119.83 2.30962C1131.52 2.50428 1133.85 1.45036 1142.98 1.35797C1195.46 0.826515 1246.01 1.24747 1297.97 1.10201C1301.74 1.09152 1301.41 1.59731 1303.85 1.55981C1314.34 1.38581 1309.46 0.612345 1320.42 0.497768C1343.21 0.255558 1366.62 0.270988 1390.78 0.26225C1393.17 0.261151 1394.25 0.930105 1399.72 0.906622C1405.21 0.883051 1409.36 0.221955 1417.97 0.218343C1427.65 0.214689 1437.28 0.33857 1447 0.47875L1458.47 0.423791L1458.52 12C1458.34 24.8701 1458.12 37.9124 1458.15 51.4818C1458.16 55.4231 1459.02 60.3068 1459.03 66.2186C1459.08 84.7693 1458.41 112.235 1458.43 128.13C1458.52 180.568 1459.17 228.945 1459.32 278.342C1459.35 289.949 1458.55 300.234 1458.54 306.273C1458.53 319.888 1459.3 309.615 1459.34 323.409C1459.65 436.083 1459.46 549.191 1459.61 663.193C1459.67 707.963 1460.56 762.459 1460.32 805.728C1460.29 810.82 1460.18 814.732 1460.03 818.012V831.045H1447C1438.69 830.672 1434.43 830.078 1425.3 830.069C1402.61 830.053 1398.49 831.528 1374.55 831.666C1355.44 831.773 1333.54 830.291 1313.66 830.369C1293.79 830.447 1284.61 831.864 1261.78 832.011C1242.97 832.13 1216.71 831.455 1196.23 831.531C1008.59 832.248 823.808 832.145 635.004 830.29C568.384 829.655 494.471 829.426 425.623 827.949C419.156 827.811 429.048 826.763 408.316 826.897C397.177 826.971 381.626 827.822 355.88 827.723C242.76 827.277 124.067 825.589 7 824.573L0.383657 824.516L0.439355 818.012C0.807983 776.663 1.11046 735.516 1.31945 694.889C1.40999 461.742 4.44175 220.114 6.9646 17.5134C7.03169 7.57555 6.9847 12.9646 6.9873 18.9185C6.97287 24.4439 6.94795 29.5523 6.90911 35.3346C6.97878 42.616 6.9821 41.332 6.92153 68.3208C6.8865 84.9367 7.00242 71.6645 7.03307 80.5215C7.05176 92.0033 7.37834 145.912 7.0536 135.544C7.10822 138.886 7.16438 141.97 7.22567 145.226C7.33862 184.254 7.53017 222.173 7.82193 260.344C7.87217 266.938 8.0659 267.242 8.12522 274.052C8.28919 292.344 8.21055 306.867 8.30254 325.717C8.35318 335.956 8.63847 337.376 8.68317 350.786C8.73056 364.188 8.30773 363.894 8.84185 382.179C9.31331 370.269 9.20065 423.397 9.31463 442.291C9.32626 445.033 10.0105 467.522 10.0188 479.476C10.0261 491.47 9.72059 509.678 10.043 528.227C10.1956 536.924 10.7373 542.201 10.8261 551.583C10.8893 558.18 10.465 566.105 10.4871 574.459C10.5084 582.809 11.0124 600.878 11.041 604.189C11.1368 616.14 10.7085 602.956 10.7348 611.129C10.8682 650.586 10.8651 696.429 11.3276 735.329C11.3852 740.112 11.8425 733.494 11.8613 734.13C12.6476 766.596 11.9079 749.267 11.5025 758.034C11.2154 764.287 11.4053 799.625 11.9121 818.012L7 813.1C13.5859 812.919 17.997 812.697 18.1178 812.448C20.0269 813.614 33.8415 812.651 37.4298 812.594C51.3936 812.387 48.655 813.448 62.1909 813.064C67.1583 812.922 57.4866 812.253 62.825 812.247C76.0199 812.228 87.8944 813.342 105.459 813.399C109.7 813.413 111.079 812.874 118.619 812.86C126.168 812.844 157.811 813.389 143.209 812.292C162.4 813.138 166.264 812.618 188.584 812.552C194.238 812.536 201.518 813.43 213.551 813.103C217.62 812.992 217.5 812.094 223.627 812.061C237.634 811.981 250.831 812.878 268.608 812.86C301.853 812.83 337.243 812.009 371.902 812.147C381.322 812.186 378.971 813.192 392.671 813.176C394.684 813.173 411.185 812.252 420.653 812.305C426.351 812.335 455.875 812.883 461.83 812.921C471.677 812.98 473.435 811.962 478.829 812.145C494.424 812.675 481.913 814.218 500.677 812.108C506.846 813.238 517.812 813.099 521.326 814.517C527.709 812.944 535.986 814.431 548.366 813.885C560.747 813.34 570.899 810.224 573.898 813.541C579.682 813.128 604.322 812.381 608.478 812.319C620.726 812.148 614.177 813.097 623.42 812.952C625.048 812.928 623.343 812.29 633.787 812.331C640.642 812.358 690.866 812.298 693.865 812.383C728.083 813.354 675.219 813.069 667.819 813.785C666.513 813.602 665.221 813.418 663.826 813.238C648.706 812.957 657.315 814.406 664.169 814.741C671.024 815.075 683.832 814.403 689.53 814.883C692.369 815.124 690.61 816.905 682.025 816.694C691.211 817.237 678.666 817.818 682.299 818.33C686.293 818.892 727.575 819.084 727.794 818.09C720.084 818.056 710.487 818.089 702.69 818.049C692.494 816.358 723.465 810.452 751.87 812.75C772.473 814.437 738.507 815.849 787.255 814.351C779.759 814.288 773.418 814.132 766.607 814.067C765.881 812.759 776.931 814.184 782.628 813.761C785.365 813.551 768.498 812.647 783.143 812.315C795.737 814.178 805.428 812.271 826.547 812.212C820.678 812.56 814.801 812.905 808.932 813.251C844.619 814.592 761.729 815.111 831.123 815.834C822.772 815.9 814.464 815.888 806.07 815.986C810.139 816.679 803.628 818.719 807.27 819.15C816.821 820.286 830.954 819.611 842.604 819.715C847.702 819.759 844.54 820.314 844.968 820.317C851.95 820.383 850.409 819.566 856.535 819.516C864.244 819.453 886.511 820.262 890.121 820.173C899.461 819.944 883.909 818.311 884.809 818.191C890.763 817.404 902.927 818.057 902.287 817.024C873.022 817.731 788.683 816.867 864.983 815.138C843.947 813.5 850.022 811.232 880.268 810.996C905.288 810.803 889.143 811.748 902.167 812.745C903.851 812.868 937.361 813.32 939.078 812.596C937.735 814.261 948.64 815.732 941.322 817.453C940.251 817.706 926.5 817.607 931.298 818.986C933.697 819.679 940.581 821.192 939.472 822.075C942.299 821.464 945.256 820.774 948.125 820.133C968.733 819.962 971.66 820.627 982.928 821.79C982.414 821.307 972.003 819.277 987.812 819.899C988.623 819.936 989.324 820.664 997.356 821.031C1013.59 821.765 1016.98 822 1004.52 824.132C1038.14 822.94 1045.38 825.352 1079.86 824.684C1073.01 821.884 1060.89 822.573 1029.31 823.079C1027.94 822.419 1027.3 821.767 1025.89 821.101C1067.91 822.619 1047.15 822.462 1070.95 821.128C1076.78 820.801 1107.85 821.167 1097.48 819.278C1095.03 818.834 1075.73 818.883 1077.95 818.186C1078.37 818.053 1101.84 817.714 1103.91 817.895C1129.87 820.132 1083.47 821.678 1154.97 820.888C1156.94 820.864 1157.63 820.043 1161.48 819.93C1168.72 819.718 1168.81 820.671 1175.28 820.452C1181.74 820.234 1190.71 818.95 1200.43 820.14C1218.21 822.313 1176.27 823.536 1157.59 822.381C1150.01 825.19 1283.46 825.35 1291.73 825.102C1327.84 824.054 1267.75 824.643 1264.66 823.852C1263.37 823.517 1264.01 819.289 1248.81 822.028C1244.31 822.839 1263.11 823.918 1251.89 824.361C1240.67 824.803 1245.11 823.561 1244.3 823.474C1241.51 823.176 1229.57 823.631 1228.02 823.454C1204.2 820.774 1206.38 816.738 1237.96 822.713C1251.71 821.366 1220.15 819.21 1237.24 818.296C1258.02 817.182 1273.18 819.11 1275.79 819.198C1307.1 820.231 1271 817.408 1309.24 818.31C1330.54 818.814 1277.38 820.187 1326 820.007C1366.7 819.853 1344.72 818.866 1347.68 816.628C1348.38 816.104 1370.68 815.46 1340.31 815.693C1339.45 816.276 1337.83 817.044 1335.91 817.582C1328.46 817.156 1316.04 814.242 1312.09 814.142C1292.77 813.662 1293.7 815.172 1282.31 813.396C1290.44 815.34 1277.2 814.171 1272.23 814.582C1253.78 816.099 1277.97 816.653 1236.55 814.722C1241.95 815.63 1246.84 816.522 1252.06 817.428C1247.09 817.459 1242.12 817.492 1237.15 817.523C1229.74 815.521 1203.35 815.786 1227.25 813.766C1198.51 813.205 1186.89 813.648 1180.59 815.199C1179.39 815.495 1175.07 815.614 1170 815.644C1170.96 816.078 1172.19 817.422 1171.39 817.587C1164.23 819.036 1153.14 816.535 1156.92 815.581C1153.37 815.536 1150.56 815.483 1149.57 815.46C1143.28 815.314 1155.61 814.447 1150.52 814.154C1148.84 814.059 1131.12 814.254 1130.78 813.905C1128.64 811.665 1157.8 813.257 1099.25 812.003C1097.83 814.035 1125.03 813.573 1118.04 815.741C1110.55 818.066 1095.25 814.957 1091.91 817.801C1090.67 817.333 1090.12 816.944 1089.05 816.412C1065.36 817.653 1065.05 815.292 1057.81 814.777C1043.76 813.771 979.154 813.961 1037.16 815.961C1028.68 816.167 1020.02 816.264 1011.58 816.445C1009.65 812.258 1014.79 813.918 974.137 813.316C965.184 813.183 962.269 811.364 953.489 813.538C954.681 811.414 928.2 812.727 925.729 812.473C909.878 810.839 968.733 808.399 976.279 812.159C986.214 810.678 986.179 812.62 997.271 812.352C1013.29 811.963 1015.52 811.575 1034.54 813.004C1053.26 810.941 961.247 812.196 1017.03 809.428C1067.74 806.882 1340.78 804.981 1447 804.464C1447 804.464 1447 804.464 1447 804.464L1433.45 818.012C1433.39 807.372 1433.35 798.406 1433.31 791.505C1432.58 654.196 1432.19 582.003 1432.56 458.661C1432.59 446.495 1432.62 354.648 1434.92 373.736C1435.24 376.478 1436.07 415.984 1437.97 382.099C1436.87 388.991 1436.2 369.067 1436.09 367.396C1433.59 329.054 1432.9 351.25 1433.06 290.885ZM1453.3 111.937C1452.94 190.72 1454.32 132.841 1457.71 149.207C1457.68 139.096 1457.66 129.022 1457.64 118.911C1457.44 121.567 1457.24 124.189 1457.04 126.845C1457.04 126.856 1457.04 126.868 1457.04 126.879C1455.79 121.91 1454.54 116.906 1453.3 111.937ZM259.032 9.99683C262.106 9.87115 265.144 9.74216 268.474 9.60962C278.883 9.55334 289.252 9.50114 299.661 9.45352C298.419 9.5437 297.219 9.63357 295.977 9.72188C283.663 9.80882 271.388 9.89701 259.032 9.99683ZM1146.57 822.899C1131.84 821.569 1133.17 823.927 1113.59 822.841C1115.99 824.577 1118.65 826.278 1121.18 828.001C1136.08 827.764 1139.47 827.105 1155.66 827.549C1153.77 826.986 1151.84 826.42 1150 825.855C1147.31 825.973 1144.44 826.107 1141.83 826.21C1137.67 824.642 1163.54 824.426 1146.63 822.895C1146.61 822.897 1146.59 822.898 1146.57 822.899ZM995.557 823.472C987.631 823.241 956.231 822.384 951.947 823.079C937.423 825.429 1026.01 824.047 960.72 826.067C961.019 826.401 960.721 826.727 960.72 827.057C972.63 827.195 984.504 827.318 996.5 827.433C995.857 826.108 996.285 824.803 995.557 823.472ZM1453.89 396.887C1453.72 409.068 1454.93 467.138 1456.44 448.208C1456.88 442.639 1454.65 416.714 1454.74 406.86C1454.79 400.479 1456 407.631 1455.54 395.036C1455.01 395.592 1454.43 395.937 1453.9 396.921C1453.9 396.91 1453.9 396.898 1453.89 396.887ZM1446.95 374.045C1447.16 386.64 1447.43 399.406 1447.66 412.086C1449.02 402.832 1448.14 384.626 1450.05 383.555C1450.19 387.024 1450.34 390.453 1450.49 393.922C1450.07 396.578 1449.65 399.192 1449.24 401.805C1450.28 412.687 1450.8 406.096 1450.51 426.36C1453.41 414.107 1454.95 411.832 1451.99 377.129C1453.57 383.684 1458.65 377.514 1454.98 358.28C1454.3 354.681 1453.87 369.71 1453.77 369.881C1452.43 372.192 1451.57 363.854 1450.31 366.334C1449.74 367.448 1449.75 376.615 1448.96 377.986C1448.57 378.619 1447.47 369.9 1446.95 374.045ZM1453.7 348.941C1454.51 352.84 1456.4 339.517 1455.99 327.95C1455.36 309.913 1453.6 338.359 1453.7 348.941ZM258.964 9.99773C258.987 9.99743 259.009 9.99713 259.032 9.99683C259.021 9.9973 259.009 9.99778 258.998 9.99825C258.987 9.99808 258.975 9.9979 258.964 9.99773ZM1036.43 824.455C1027.09 825.138 1013.27 825.019 1014.29 826.118C1009.75 825.896 1005.15 825.677 1000.61 825.456C1000.65 825.785 1000.74 826.115 1000.78 826.441C1014.45 826.667 1028.07 826.895 1041.74 827.125C1040.02 826.236 1038.44 825.344 1036.43 824.455ZM887.551 823.516C870.374 823.385 884.774 824.857 881.005 825.553C877.234 826.247 861.932 825.648 863.732 826.653C873.843 826.714 884.388 826.776 894.628 826.833C891.928 825.729 890.044 824.609 887.516 823.516C887.528 823.516 887.539 823.516 887.551 823.516ZM1225.4 5.50623C1237.05 5.73156 1232.3 6.69528 1255.3 5.51492C1255.29 5.51498 1255.27 5.51503 1255.25 5.51509C1233.36 4.80286 1205.18 4.2498 1181.02 5.06974C1195.8 5.98202 1207.07 5.1573 1225.4 5.50623ZM1187.32 826.367C1192.24 825.445 1169.33 824.656 1164.28 825.51C1156.1 826.889 1179.83 827.765 1187.32 826.367ZM754.769 12.0514C737.044 13.6173 770.629 15.5031 805.799 14.8191C808.841 14.7528 786.135 14.1656 792.862 13.8571C793.542 13.8261 806.006 13.89 809.089 13.6594C812.174 13.4275 808.935 12.8756 813.99 12.6483C822.861 12.2451 842.907 13.0194 849.547 12.4784C850.421 12.4033 837.989 11.645 837.209 11.6189C824.443 11.1736 812.141 12.1479 810.169 12.1502C800.015 12.1806 801.55 11.4357 798.979 11.2625C794.137 10.9383 785.613 11.2732 785.014 11.2486C769.604 10.6231 804.814 10.767 809.569 10.4884C822.377 9.73117 810.519 9.08135 841.236 8.56267C844.152 8.51859 879.069 8.43054 835.067 7.72555C921.466 5.50774 791.654 6.93049 777.56 7.36771C771.062 7.57032 780.9 8.22073 776.96 8.54915C767.963 9.29477 752.627 9.4554 753.998 10.4328C756.956 12.4951 777.096 11.1308 790.977 11.472C789.52 11.9384 788.964 12.3924 786.264 12.8439C790.42 12.2305 756.054 11.929 754.769 12.0474C754.769 12.0487 754.769 12.0501 754.769 12.0514ZM973.489 9.18951C992.897 9.91631 991.523 8.30863 1009.3 9.19623C1024.98 7.6911 994.056 7.87453 990.454 7.8063C974.005 7.49119 974.383 5.9473 957.553 6.49362C963.336 7.37531 968.049 8.28184 973.489 9.18951ZM804.685 9.00347C817.665 8.26456 794.438 8.35556 793.496 8.22941C783.239 6.87607 852.789 6.85277 804.685 9.00347ZM1449.36 472.49C1449.28 479.084 1450.4 474.9 1450.73 480.715C1451.06 486.539 1450.12 506.454 1450.81 505.956C1451.51 505.442 1453.28 468.948 1453.71 505.579C1454.1 504.338 1454.39 504.756 1454.74 504.156C1454.74 494.088 1454.75 483.929 1454.75 473.86C1453.63 479.386 1452.46 485.05 1451.37 490.362C1450.48 484.707 1451.62 481.529 1451.62 481.229C1451.62 481.229 1451.62 481.229 1451.62 481.229C1451.52 470.693 1449.53 457.681 1449.36 472.49ZM1388.29 6.89467C1386.32 9.32807 1401.87 6.58735 1408.26 6.26461C1414.64 5.94688 1423.41 6.83778 1420.12 5.7866C1409.79 5.08447 1388.51 6.6269 1388.29 6.89779C1388.29 6.89675 1388.29 6.89571 1388.29 6.89467ZM1078.93 8.97214C1095.19 8.43746 1092.61 7.88962 1112.51 8.47172C1111.74 7.96173 1110.97 7.44132 1110.2 6.94057C1094.39 6.98217 1095.5 8.44351 1077.21 7.90277C1074.21 7.81476 1080.63 6.63526 1067.1 7.0513C1071.04 7.65384 1075.03 8.32906 1078.93 8.97214ZM1159.55 6.87085C1140.87 7.01703 1126.06 11.2373 1160.46 9.28637C1165.56 8.99503 1173.6 6.76755 1159.55 6.87085ZM1449.16 300.19C1449.02 331.965 1449.86 295.867 1450.66 287.595C1451.37 361.566 1450.44 279.245 1453.11 271.864C1452.33 262.825 1450.57 245.91 1450.12 264.702C1449.93 272.542 1450.73 269.68 1450.73 270.151C1450.54 284.588 1449.23 282.839 1449.16 300.19ZM939.766 9.35201C940.966 9.32162 939.089 8.69263 942.902 8.55539C946.719 8.41795 955.36 8.84329 956.217 8.44744C957.069 8.04642 939.737 7.79815 934.42 8.09968C929.108 8.40319 928.928 9.61596 939.766 9.35201ZM1061.7 10.8139C1077.58 10.2945 1051.62 7.78166 1048.17 7.81581C1017.83 8.02466 1062.6 9.98595 1061.7 10.8139ZM1443.51 226.403C1445.16 264.704 1448.12 236.687 1449.84 212.695C1449.48 209.526 1449.13 206.276 1448.78 203.15C1450.93 217.545 1453.09 242.772 1451.15 186.649C1450.68 217.368 1450.08 191.644 1449.96 191.446C1446.04 188.062 1447.86 233.567 1443.51 226.369C1443.51 226.381 1443.51 226.392 1443.51 226.403ZM888.136 8.8225C871.466 8.88462 828.128 9.43399 848.347 10.5179C861.626 9.97158 874.858 9.40596 888.136 8.8225ZM1411.56 814.513C1397.94 813.454 1385.38 813.473 1368.58 813.545C1383.71 815.085 1373.77 815.263 1368.67 815.641C1360.94 816.21 1379.67 816.162 1379.72 816.266C1379.38 817.731 1367.43 817.958 1394.63 817.923C1387.91 818.434 1381.27 818.948 1374.55 819.454C1395.28 819.522 1400.16 820.478 1413.31 821.647C1400.54 818.792 1417.35 820.58 1432.6 819.159C1440.22 818.448 1418.49 815.054 1411.51 814.513C1411.53 814.513 1411.54 814.513 1411.56 814.513ZM1442.94 265.987C1443.42 269.928 1444.07 273.535 1444.62 277.348C1444.67 281.504 1444.72 285.667 1444.77 289.823C1444.34 290.337 1443.89 290.765 1443.47 291.365C1443.34 296.841 1443.95 294.707 1444 296.334C1444 296.334 1444 296.334 1443.99 296.334C1444.77 319.674 1444.69 329.232 1443.33 347.519C1444.66 347.519 1445.99 347.519 1447.33 347.519C1447.2 343.409 1447.08 339.256 1446.95 335.147C1446.24 332.962 1445.52 330.768 1444.81 328.584C1445.21 323.828 1445.6 319.117 1445.99 314.361C1445.74 310.551 1445.47 305.972 1445.22 302.675C1448.91 283.697 1446.4 326.827 1447.94 327.213C1448.93 327.469 1448.87 284.031 1448.19 277.776C1448.09 276.877 1445.36 286.263 1446.79 270.374C1447.01 267.889 1452.9 267.015 1448.13 249.879C1447.45 247.438 1443.8 255.965 1442.94 265.987ZM1440.85 423.704C1444.76 399.285 1440.58 489.413 1443.81 450.522C1445.6 461.616 1445.59 459.557 1447.18 448.38C1447.32 447.396 1447.82 455.119 1447.88 454.463C1448.76 444.009 1448.29 431.415 1449.88 431.33C1449.79 428.503 1449.72 425.845 1449.63 423.019C1448.13 434.792 1447.12 416.07 1445.86 408.83C1445.29 405.533 1445.11 413.112 1444.61 410.338C1444.43 409.311 1444.8 398.727 1444.28 398.292C1443.1 397.392 1441.49 404.04 1440.61 415.308C1440.61 415.308 1440.61 415.308 1440.6 415.308C1440.68 418.133 1440.77 420.879 1440.85 423.704ZM1336.78 14.5103C1332.63 12.6522 1315.97 12.1387 1347.97 11.2233C1346.39 10.8578 1344.76 10.4961 1343.18 10.1321C1337.78 10.1686 1332.55 10.2046 1327.07 10.2379C1310.62 15.6503 1280.59 9.56069 1299.82 13.3716C1301.92 13.7856 1314.72 13.3356 1302.08 14.4475C1302.1 14.4486 1302.12 14.4496 1302.14 14.4506C1319.78 14.1268 1322 13.4697 1336.78 14.5103ZM1445.72 19.9007C1447.64 39.0746 1448.27 27.7012 1448.26 12L1448.25 10.7381L1447 10.7441C1429.37 10.7537 1406.29 11.5229 1414.85 12.0845C1415.85 12.1511 1435.55 11.768 1447 12.1375L1446.86 12C1446.69 17.3578 1446.35 20.911 1445.72 19.9007ZM1128.31 16.1413C1146.56 16.2505 1147.77 14.3402 1145.93 13.6518C1144.08 12.9621 1131.45 13.6464 1129.82 13.536C1124.51 13.1782 1135.77 12.9507 1128.88 12.462C1126.59 12.3002 1094.81 11.6362 1093.35 11.7188C1085.27 12.1593 1097.09 13.6861 1094.78 13.8611C1087.24 14.4225 1077 13.6214 1074.81 14.4203C1070.1 16.1208 1089.19 14.3624 1092.41 14.3321C1102.14 14.2635 1101.29 15.2398 1108.57 15.4523C1115.85 15.665 1120.6 15.3369 1127.03 15.4198C1129.16 15.4477 1127.39 16.1328 1128.31 16.1413ZM1188.65 12.1613C1169.59 13.6194 1215.99 15.2855 1221.49 14.9527C1237.69 13.9148 1197.77 11.4421 1188.65 12.1613ZM1446.72 362.564C1445.4 345.133 1444.31 385.74 1444.85 397.349C1445.4 395.196 1447.18 368.56 1446.72 362.564ZM1443.53 215.779C1443.91 231.802 1446.82 210.554 1446.77 197.187C1444.88 189.351 1445.26 196.725 1445.18 205.463C1445.09 214.192 1443.23 203.279 1443.53 215.779ZM930.393 14.1238C933.85 14.1653 989.566 13.0913 957.553 12.5934C955.111 12.5584 916.111 12.7356 913.155 12.9337C907.207 13.3367 921.483 14.0462 930.393 14.1238ZM1440.85 138.925C1442.45 147.407 1442.42 155.753 1444.32 147.956C1444.32 147.945 1444.32 147.933 1444.32 147.922C1444.89 169.384 1440.99 170.335 1441.07 174.962C1441.33 191.145 1444.14 175.813 1445.04 185.963C1444.2 162.358 1446.07 169.128 1446.19 151.177C1446.21 147.15 1445.11 131.035 1444.43 128.678C1443.74 126.326 1441.67 134.556 1440.85 138.925ZM851.689 14.2552C870.494 14.7229 887.713 12.9439 861.627 12.645C848.903 12.5065 840.207 13.9808 851.689 14.2552ZM968.431 813.802C971.301 814.518 974.258 815.232 977.342 815.943C970.404 816.12 963.46 816.3 956.522 816.478C962.006 816.25 967.497 816.025 973.024 815.798C959.999 815.552 954.045 814.255 968.397 813.802C968.408 813.802 968.42 813.802 968.431 813.802ZM504.755 813.906C498.929 813.323 487.448 815.182 488.905 815.321C499.869 816.379 512.842 814.723 504.755 813.906ZM1440.16 388.319C1439.83 409.98 1443.37 395.084 1443.61 381.807C1442.94 389.93 1440.34 376.027 1440.16 388.319ZM667.819 813.785C669.764 814.058 671.724 814.331 673.902 814.606C667.051 814.229 665.863 813.974 667.819 813.785ZM939.252 16.2577C942.559 16.4518 967.016 16.6945 970.319 16.4723C977.174 15.9988 958.103 14.597 946.878 14.9879C945.635 15.0313 935.962 16.0643 939.304 16.2579C939.287 16.2578 939.269 16.2578 939.252 16.2577ZM939.129 812.502C939.167 812.535 939.147 812.567 939.078 812.596C939.103 812.565 939.095 812.533 939.129 812.502ZM17.9293 812.35C18.0625 812.383 18.1335 812.416 18.1178 812.448C18.0666 812.417 17.9629 812.385 17.9293 812.35ZM1111.74 19.0979C1119.88 21.718 1138.64 20.4394 1123.82 19.0815C1122.99 19.0107 1113.71 19.1118 1111.74 19.0979Z" fill="#013767"/>
</svg>
