<svg width="81" height="81" viewBox="0 0 81 81" fill="none" xmlns="http://www.w3.org/2000/svg">
<g clip-path="url(#clip0_1624_2120)">
<path d="M61.744 20.3057C61.744 20.3057 76.0887 31.2415 75.0117 48.3404C73.9346 65.4394 67.2667 74.8506 40.8676 79.4903C40.8676 79.4903 4.16426 76.3093 5.78043 46.6841C5.10744 31.5074 18.7779 20.3057 18.7779 20.3057C18.7779 20.3057 22.2805 23.6854 29.2161 21.3656C29.2161 21.3656 33.0545 24.2819 39.4523 24.6795C45.85 25.0771 49.4864 21.4985 49.4864 21.4985C49.4864 21.4985 55.2111 23.9513 61.744 20.3057Z" fill="#93D500"/>
<path d="M50.4446 0.982422C51.5507 2.24987 52.1611 4.2719 52.0461 5.39355C51.9333 6.51049 48.3636 11.309 48.3449 11.334C56.7085 14.386 62.3447 19.5135 62.3899 19.5547C62.4198 19.5803 62.4498 19.6062 62.4797 19.6318L62.4826 19.6309C77.599 32.4144 76.32 49.2041 76.3186 49.2227H76.3205C75.0598 79.3387 40.5598 80.9824 40.5598 80.9824C25.0635 78.9641 6.13409 69.697 4.60764 53.6299C3.1001 37.7639 8.19721 28.1426 17.6555 20.0693C17.6542 20.0684 17.6529 20.0674 17.6516 20.0664C26.6947 11.6919 33.6132 10.6494 33.6457 10.6445C28.4314 8.07462 22.0299 9.23617 16.4895 7.73633V7.73828C10.329 6.06865 11.2824 4.95801 11.2824 4.95801C17.686 6.49848 24.5099 5.98537 29.2004 6.60156C33.8909 7.21778 39.1751 9.64992 40.3303 9.9248C41.4773 10.1977 44.3475 10.1992 44.3889 10.1992C45.5083 9.34134 50.4446 0.982422 50.4446 0.982422ZM60.6028 21.1211C59.3419 21.962 57.8126 22.6794 56.0578 22.9385C52.3304 23.4881 49.0627 22.0381 49.0627 22.0381C49.0373 22.0604 41.1289 28.9765 29.302 21.9385C29.302 21.9385 24.8349 23.9254 19.718 21.3477L19.7473 21.3662C11.3067 29.1811 5.46273 36.4559 7.0305 53.4102C8.30254 67.1712 24.8884 76.4644 40.6428 78.5879C41.9714 78.4901 49.5171 77.7961 57.0344 74.1875C67.7364 69.0513 73.4064 60.6185 73.8869 49.123L73.8948 49.0146C73.9493 48.377 75.5518 32.3309 60.6028 21.1211Z" fill="#006937"/>
<path d="M38.2949 42.6573L39.0559 40.9625H23.9867L24.7246 42.6573M40.7853 47.592L40.0244 45.8971H55.4049L54.667 47.592M29.74 42.5074V48.4336L31.504 46.7042L33.1873 48.4336V42.519M25.6931 45.2861H29.74M33.1989 45.2861H37.2803M46.0428 47.1308V53.0916L47.8069 51.3622L49.4902 53.0916V47.1423M41.9844 49.9094H46.0544M49.5017 49.9094H53.5717M28.2527 30.1131L32.4264 33.4567M30.4318 36.5236L21.7039 30.0439M56.7077 30.4821L46.9652 38.2876M48.9252 41.3775L57.9644 34.6788M32.5647 36.6965V40.9625M30.9967 40.9625V36.8464M48.245 41.7926V45.8971M46.677 45.8971V41.6542M29.74 35.1054C29.74 36.1316 30.5816 36.9502 31.6193 36.9502C32.657 36.9502 33.4986 36.12 33.4986 35.1054C33.4986 34.0908 32.657 33.2492 31.6193 33.2492C30.5816 33.2492 29.74 34.0793 29.74 35.1054ZM49.5017 40.0401C49.5017 41.0662 48.66 41.8964 47.6224 41.8964C46.5847 41.8964 45.7431 41.0662 45.7431 40.0401C45.7431 39.014 46.5847 38.1838 47.6224 38.1838C48.66 38.1838 49.5017 39.014 49.5017 40.0401ZM37.2688 51.7542H25.67V42.5074H37.2688V51.7542ZM53.5717 56.3775H41.9729V47.1308H53.5717V56.3775ZM56.0851 61.6235C56.0851 62.4767 55.3818 63.1685 54.5171 63.1685C53.6524 63.1685 52.9491 62.4767 52.9491 61.6235C52.9491 60.7703 53.6524 60.0785 54.5171 60.0785C55.3818 60.0785 56.0851 60.7703 56.0851 61.6235ZM48.8676 61.6235C48.8676 62.4767 48.1643 63.1685 47.2996 63.1685C46.4348 63.1685 45.7315 62.4767 45.7315 61.6235C45.7315 60.7703 46.4348 60.0785 47.2996 60.0785C48.1643 60.0785 48.8676 60.7703 48.8676 61.6235ZM41.6616 61.6235C41.6616 62.4767 40.9583 63.1685 40.0936 63.1685C39.2288 63.1685 38.5255 62.4767 38.5255 61.6235C38.5255 60.7703 39.2288 60.0785 40.0936 60.0785C40.9583 60.0785 41.6616 60.7703 41.6616 61.6235ZM34.4441 61.6235C34.4441 62.4767 33.7408 63.1685 32.876 63.1685C32.0113 63.1685 31.308 62.4767 31.308 61.6235C31.308 60.7703 32.0113 60.0785 32.876 60.0785C33.7408 60.0785 34.4441 60.7703 34.4441 61.6235ZM27.5494 61.6235C27.5494 62.4767 26.8461 63.1685 25.9813 63.1685C25.1166 63.1685 24.4133 62.4767 24.4133 61.6235C24.4133 60.7703 25.1166 60.0785 25.9813 60.0785C26.8461 60.0785 27.5494 60.7703 27.5494 61.6235ZM55.9237 65.0132H24.886C23.0643 65.0132 21.5886 63.5605 21.5886 61.7734C21.5886 59.9863 23.0643 58.5336 24.886 58.5336H55.9237C57.7454 58.5336 59.2096 59.9863 59.2096 61.7734C59.2096 63.5605 57.7338 65.0132 55.9237 65.0132Z" stroke="white" stroke-linecap="round" stroke-linejoin="round"/>
</g>
<defs>
<clipPath id="clip0_1624_2120">
<rect width="81" height="81" fill="white"/>
</clipPath>
</defs>
</svg>
