<svg width="81" height="81" viewBox="0 0 81 81" fill="none" xmlns="http://www.w3.org/2000/svg">
<g clip-path="url(#clip0_1624_2126)">
<path d="M61.744 20.3057C61.744 20.3057 76.0887 31.2415 75.0117 48.3404C73.9346 65.4394 67.2667 74.8506 40.8676 79.4903C40.8676 79.4903 4.16426 76.3093 5.78043 46.6841C5.10744 31.5074 18.7779 20.3057 18.7779 20.3057C18.7779 20.3057 22.2805 23.6854 29.2161 21.3656C29.2161 21.3656 33.0545 24.2819 39.4523 24.6795C45.85 25.0771 49.4864 21.4985 49.4864 21.4985C49.4864 21.4985 55.2111 23.9513 61.744 20.3057Z" fill="#93D500"/>
<path d="M50.4446 0.982422C51.5507 2.24987 52.1611 4.2719 52.0461 5.39355C51.9333 6.51049 48.3636 11.309 48.3449 11.334C56.7085 14.386 62.3447 19.5135 62.3899 19.5547C62.4198 19.5803 62.4498 19.6062 62.4797 19.6318L62.4826 19.6309C77.599 32.4144 76.32 49.2041 76.3186 49.2227H76.3205C75.0598 79.3387 40.5598 80.9824 40.5598 80.9824C25.0635 78.9641 6.13409 69.697 4.60764 53.6299C3.1001 37.7639 8.19721 28.1426 17.6555 20.0693C17.6542 20.0684 17.6529 20.0674 17.6516 20.0664C26.6947 11.6919 33.6132 10.6494 33.6457 10.6445C28.4314 8.07462 22.0299 9.23617 16.4895 7.73633V7.73828C10.329 6.06865 11.2824 4.95801 11.2824 4.95801C17.686 6.49848 24.5099 5.98537 29.2004 6.60156C33.8909 7.21778 39.1751 9.64992 40.3303 9.9248C41.4773 10.1977 44.3475 10.1992 44.3889 10.1992C45.5083 9.34134 50.4446 0.982422 50.4446 0.982422ZM60.6028 21.1211C59.3419 21.962 57.8126 22.6794 56.0578 22.9385C52.3304 23.4881 49.0627 22.0381 49.0627 22.0381C49.0373 22.0604 41.1289 28.9765 29.302 21.9385C29.302 21.9385 24.8349 23.9254 19.718 21.3477L19.7473 21.3662C11.3067 29.1811 5.46273 36.4559 7.0305 53.4102C8.30254 67.1712 24.8884 76.4644 40.6428 78.5879C41.9714 78.4901 49.5171 77.7961 57.0344 74.1875C67.7364 69.0513 73.4064 60.6185 73.8869 49.123L73.8948 49.0146C73.9493 48.377 75.5518 32.3309 60.6028 21.1211Z" fill="#006937"/>
<path d="M40.2953 59.9755C34.1846 59.9755 29.2039 54.9255 29.2039 48.7226C29.2039 42.5197 34.1731 37.4697 40.2953 37.4697C46.4175 37.4697 51.3868 42.5197 51.3868 48.7226C51.3868 54.9255 46.4175 59.9755 40.2953 59.9755ZM40.2953 38.5996C34.7957 38.5996 30.3107 43.1423 30.3107 48.7226C30.3107 54.3029 34.7842 58.8456 40.2953 58.8456C45.8065 58.8456 50.28 54.3029 50.28 48.7226C50.28 43.1423 45.8065 38.5996 40.2953 38.5996Z" fill="white"/>
<path d="M50.8334 49.2871H29.9879C29.6766 49.2871 29.4344 49.0335 29.4344 48.7222C29.4344 48.4109 29.6881 48.1572 29.9879 48.1572H50.8334C51.1447 48.1572 51.3868 48.4109 51.3868 48.7222C51.3868 49.0335 51.1331 49.2871 50.8334 49.2871Z" fill="white"/>
<path d="M40.3991 59.8717C40.0878 59.8717 39.8457 59.618 39.8457 59.3067V38.1499C39.8457 37.8386 40.0993 37.585 40.3991 37.585C40.6989 37.585 40.9525 37.8386 40.9525 38.1499V59.3067C40.9525 59.618 40.6989 59.8717 40.3991 59.8717Z" fill="white"/>
<path d="M40.6412 44.779C35.6258 44.779 31.8211 42.5999 31.775 42.5653C31.5098 42.4154 31.4175 42.0695 31.5674 41.7928C31.7173 41.5276 32.0632 41.4354 32.3284 41.5853C32.4091 41.6314 40.4106 46.2087 48.2853 41.5853C48.5505 41.4239 48.8849 41.5161 49.0463 41.7928C49.1962 42.058 49.1155 42.4039 48.8503 42.5653C46.0255 44.2256 43.1893 44.779 40.6527 44.779" fill="white"/>
<path d="M37.7473 59.4674C37.5628 59.4674 37.3783 59.3636 37.2746 59.1907C37.2169 59.0869 31.4175 49.0216 37.2746 38.2875C37.4244 38.0108 37.7588 37.9186 38.024 38.0685C38.2892 38.2184 38.3929 38.5642 38.243 38.8294C32.7088 49.0101 38.1739 58.5104 38.243 58.6142C38.4045 58.8794 38.3122 59.2253 38.047 59.3867C37.9548 59.4443 37.8626 59.4674 37.7588 59.4674" fill="white"/>
<path d="M43.0624 59.4674C42.9702 59.4674 42.8664 59.4443 42.7742 59.3867C42.509 59.2253 42.4283 58.8794 42.5782 58.6142C42.6358 58.522 48.1009 48.987 42.5782 38.8294C42.4283 38.5527 42.5321 38.2184 42.7972 38.0685C43.0624 37.9186 43.4083 38.0108 43.5467 38.2875C49.3922 49.0216 43.5928 59.0869 43.5467 59.1907C43.4429 59.3636 43.2584 59.4674 43.074 59.4674" fill="white"/>
<path d="M32.0517 55.9397C31.8557 55.9397 31.6712 55.8359 31.5674 55.663C31.4175 55.3978 31.5098 55.0519 31.775 54.8905C40.2146 49.9328 48.758 54.8444 48.8388 54.8905C49.1039 55.0519 49.1962 55.3863 49.0463 55.663C48.8964 55.9281 48.5505 56.0204 48.2853 55.8705C48.2046 55.8244 40.2031 51.2471 32.3284 55.8705C32.2477 55.9166 32.1439 55.9512 32.0517 55.9512" fill="white"/>
<path d="M42.1746 67.1353H38.4621C37.5974 67.1353 36.8941 66.4205 36.8941 65.5327V62.1315C35.6374 61.8087 34.4383 61.3014 33.3199 60.6326L31.21 62.8578C30.9102 63.1691 30.5182 63.3421 30.0916 63.3536C29.665 63.3536 29.2615 63.1922 28.9617 62.8809L26.356 60.2291C25.745 59.6065 25.7334 58.6265 26.333 57.9924C27.0248 57.266 27.9932 56.2283 28.4775 55.7095C27.7396 54.4412 27.1977 53.0692 26.8864 51.6165C26.8172 51.3167 27.0132 51.017 27.313 50.9478C27.6128 50.8786 27.901 51.0746 27.9702 51.3744C28.293 52.8386 28.8464 54.2222 29.642 55.4789C29.7803 55.698 29.7573 55.9862 29.5728 56.1707C29.5728 56.1707 28.074 57.7618 27.1285 58.7648C26.9556 58.9493 26.9556 59.2376 27.1285 59.422L29.7457 62.0738C29.838 62.1661 29.9533 62.2122 30.0801 62.2122C30.2069 62.2122 30.3222 62.1545 30.4145 62.0623L32.8357 59.5143C33.0201 59.3183 33.3084 59.2837 33.539 59.4336C34.7726 60.2406 36.1331 60.8056 37.5743 61.1284C37.828 61.1861 38.0125 61.4166 38.0125 61.6818V65.5327C38.0125 65.7979 38.22 66.0054 38.4736 66.0054H42.1862C42.313 66.0054 42.4283 65.9593 42.509 65.8671C42.6012 65.7748 42.6474 65.6595 42.6474 65.5327V61.6818C42.6474 61.4166 42.8318 61.1861 43.0855 61.1284C44.5267 60.8056 45.8872 60.2291 47.1208 59.4336C47.3399 59.2952 47.6397 59.3298 47.8241 59.5143L50.3145 62.1776C50.3952 62.2698 50.5221 62.3275 50.6489 62.3275C50.7757 62.3275 50.891 62.2814 50.9833 62.1891L53.6005 59.5258C53.7734 59.3413 53.7849 59.0531 53.6005 58.8686L51.0985 56.1937C50.9025 55.9862 50.891 55.6634 51.0755 55.4443L51.1101 55.4097C51.8134 54.2914 52.2976 53.0692 52.6666 51.5473L52.7012 51.2937C52.7473 50.9939 53.0355 50.7748 53.3353 50.8325C53.6351 50.8786 53.8426 51.1668 53.7965 51.4781L53.7504 51.7664C53.3929 53.3113 52.8856 54.6027 52.2169 55.7441L54.4191 58.0961C55.0071 58.7303 54.9956 59.7103 54.396 60.3213L51.7788 62.9847C51.479 63.2844 51.087 63.4574 50.6604 63.4574H50.6374C50.2108 63.4574 49.8072 63.2729 49.519 62.9616L47.3399 60.6326C46.2215 61.3014 45.034 61.8087 43.7773 62.1315V65.5327C43.7773 65.9593 43.6158 66.3628 43.3161 66.6626C43.0163 66.9624 42.6243 67.1353 42.2092 67.1353" fill="white"/>
<path d="M49.5305 35.187C49.4267 35.187 49.323 35.1524 49.2307 35.0947C47.8241 34.1608 46.3022 33.4575 44.6881 33.0079C44.3883 32.9272 44.2154 32.6159 44.2961 32.3161C44.3768 32.0163 44.6881 31.8434 44.9763 31.9241C46.7058 32.4083 48.3314 33.1578 49.8303 34.1608C50.0839 34.3338 50.1531 34.6797 49.9917 34.9449C49.8879 35.1063 49.7035 35.1985 49.5305 35.1985" fill="white"/>
<path d="M57.0363 49.2873H53.7042C53.3929 49.2873 53.1508 49.0337 53.1508 48.7224C53.1508 41.5855 47.4321 35.7862 40.3991 35.7862C33.366 35.7862 27.6474 41.5855 27.6474 48.7224C27.6474 49.0337 27.4052 49.2873 27.0939 49.2873H23.7734C23.4621 49.2873 23.22 49.0337 23.22 48.7224C23.22 45.1828 24.2577 41.7815 26.2177 38.8761C26.3906 38.6224 26.7365 38.5533 26.9902 38.7262C27.2438 38.8991 27.313 39.2566 27.1285 39.5102C25.3991 42.0698 24.4306 45.0559 24.3268 48.1574H26.5405C26.8288 40.6632 32.9394 34.6562 40.3876 34.6562C47.8357 34.6562 53.9464 40.6632 54.2346 48.1574H56.4598C56.356 45.1251 55.4337 42.2081 53.7849 39.6947C53.612 39.441 53.6812 39.0836 53.9348 38.9107C54.1885 38.7377 54.5344 38.8069 54.7073 39.0721C56.5866 41.9314 57.5782 45.275 57.5782 48.7224C57.5782 49.0337 57.3245 49.2873 57.0248 49.2873" fill="white"/>
<path d="M31.0832 35.3021C30.9102 35.3021 30.7257 35.2214 30.622 35.06C30.449 34.8063 30.5182 34.4489 30.7719 34.2759C32.3168 33.2152 34.0117 32.4197 35.8103 31.9124C36.0985 31.8317 36.4098 32.0046 36.4905 32.3044C36.5712 32.6042 36.3983 32.9155 36.0985 32.9962C34.4152 33.4689 32.8357 34.2068 31.3829 35.1983C31.2907 35.2675 31.1754 35.2906 31.0716 35.2906" fill="white"/>
<path d="M40.3991 35.7864C40.0878 35.7864 39.8457 35.5327 39.8457 35.2214V31.8433C39.8457 31.532 40.0993 31.2783 40.3991 31.2783C40.6989 31.2783 40.9525 31.532 40.9525 31.8433V35.2214C40.9525 35.5327 40.6989 35.7864 40.3991 35.7864Z" fill="white"/>
<path d="M40.3991 32.4194C39.1769 32.4194 38.1854 31.4048 38.1854 30.1711C38.1854 28.9375 39.1769 27.9229 40.3991 27.9229C41.6212 27.9229 42.6128 28.9375 42.6128 30.1711C42.6128 31.4048 41.6212 32.4194 40.3991 32.4194ZM40.3991 29.0412C39.788 29.0412 39.2922 29.5485 39.2922 30.1711C39.2922 30.7937 39.788 31.301 40.3991 31.301C41.0101 31.301 41.5059 30.7937 41.5059 30.1711C41.5059 29.5485 41.0101 29.0412 40.3991 29.0412Z" fill="white"/>
<path d="M49.8418 39.7178C49.7035 39.7178 49.5536 39.6602 49.4498 39.5564C49.2308 39.3374 49.2308 38.9799 49.4498 38.7609L51.8019 36.3743C52.0209 36.1552 52.3668 36.1552 52.5859 36.3743C52.8049 36.5933 52.8049 36.9507 52.5859 37.1698L50.2338 39.5564C50.1301 39.6717 49.9802 39.7178 49.8418 39.7178Z" fill="white"/>
<path d="M53.3699 37.8266C52.8049 37.8266 52.2285 37.6076 51.8019 37.1694C50.9371 36.2932 50.9371 34.8635 51.8019 33.9873C52.6666 33.111 54.0732 33.111 54.9379 33.9873C55.8026 34.8635 55.8026 36.2932 54.9379 37.1694C54.4998 37.6076 53.9348 37.8266 53.3699 37.8266ZM52.5859 34.7713C52.1477 35.2094 52.1477 35.9242 52.5859 36.3624C53.024 36.8005 53.7273 36.8005 54.1539 36.3624C54.592 35.9242 54.592 35.2094 54.1539 34.7713C53.7158 34.3332 53.0125 34.3332 52.5859 34.7713Z" fill="white"/>
<path d="M30.9794 39.7178C30.8411 39.7178 30.6912 39.6602 30.5874 39.5564L28.2354 37.1698C28.0163 36.9507 28.0163 36.5933 28.2354 36.3743C28.4544 36.1552 28.8003 36.1552 29.0194 36.3743L31.3714 38.7609C31.5905 38.9799 31.5905 39.3374 31.3714 39.5564C31.2677 39.6717 31.1178 39.7178 30.9794 39.7178Z" fill="white"/>
<path d="M27.4514 37.8269C26.8633 37.8269 26.2984 37.5963 25.8833 37.1697C25.4683 36.7431 25.2377 36.1782 25.2377 35.5786C25.2377 34.9791 25.4683 34.4141 25.8833 33.9875C26.7135 33.1344 28.1777 33.1344 29.0194 33.9875C29.4344 34.4141 29.665 34.9791 29.665 35.5786C29.665 36.1782 29.4344 36.7431 29.0194 37.1697C28.6043 37.5963 28.0394 37.8269 27.4514 37.8269ZM27.4514 34.4487C27.1516 34.4487 26.8749 34.564 26.6673 34.7831C26.4598 34.9906 26.3445 35.2789 26.3445 35.5786C26.3445 35.8784 26.4598 36.1666 26.6673 36.3742C27.0824 36.8008 27.8203 36.8008 28.2354 36.3742C28.4429 36.1666 28.5582 35.8784 28.5582 35.5786C28.5582 35.2789 28.4429 34.9906 28.2354 34.7831C28.0278 34.5756 27.7511 34.4487 27.4514 34.4487Z" fill="white"/>
</g>
<defs>
<clipPath id="clip0_1624_2126">
<rect width="81" height="81" fill="white"/>
</clipPath>
</defs>
</svg>
