<svg width="81" height="80" viewBox="0 0 81 80" fill="none" xmlns="http://www.w3.org/2000/svg">
<g clip-path="url(#clip0_1624_2109)">
<path d="M61.9176 19.3232C61.9176 19.3232 76.2623 30.2591 75.1853 47.358C74.1082 64.457 67.4403 73.8682 41.0413 78.5079C41.0413 78.5079 4.33787 75.3269 5.95404 45.7017C5.28105 30.525 18.9516 19.3232 18.9516 19.3232C18.9516 19.3232 22.4541 22.703 29.3897 20.3832C29.3897 20.3832 33.2281 23.2995 39.6259 23.6971C46.0236 24.0947 49.66 20.5161 49.66 20.5161C49.66 20.5161 55.3847 22.9689 61.9176 19.3232Z" fill="#93D500"/>
<path d="M50.6182 0C51.7243 1.26745 52.3347 3.28948 52.2197 4.41113C52.107 5.52806 48.5372 10.3266 48.5186 10.3516C56.8821 13.4036 62.5183 18.5311 62.5635 18.5723C62.5934 18.5979 62.6234 18.6238 62.6533 18.6494L62.6563 18.6484C77.7726 31.432 76.4936 48.2217 76.4922 48.2402H76.4941C75.2334 78.3563 40.7334 80 40.7334 80C25.2372 77.9816 6.3077 68.7146 4.78126 52.6475C3.27372 36.7815 8.37082 27.1601 17.8291 19.0869C17.8278 19.086 17.8265 19.0849 17.8252 19.084C26.8683 10.7095 33.7868 9.66697 33.8193 9.66211C28.605 7.0922 22.2035 8.25375 16.6631 6.75391V6.75586C10.5027 5.08623 11.4561 3.97559 11.4561 3.97559C17.8596 5.51606 24.6835 5.00295 29.374 5.61914C34.0645 6.23536 39.3487 8.6675 40.5039 8.94238C41.6509 9.21524 44.5211 9.21678 44.5625 9.2168C45.6819 8.35892 50.6182 0 50.6182 0ZM60.7764 20.1387C59.5155 20.9796 57.9862 21.697 56.2315 21.9561C52.504 22.5057 49.2363 21.0557 49.2363 21.0557C49.2109 21.078 41.3025 27.994 29.4756 20.9561C29.4756 20.9561 25.0085 22.943 19.8916 20.3652L19.9209 20.3838C11.4803 28.1987 5.63634 35.4735 7.20411 52.4277C8.47615 66.1888 25.062 75.482 40.8164 77.6055C42.145 77.5077 49.6907 76.8137 57.208 73.2051C67.91 68.0689 73.58 59.6361 74.0606 48.1406L74.0684 48.0322C74.123 47.3946 75.7254 31.3485 60.7764 20.1387Z" fill="#006937"/>
<path d="M40.5196 40.2206C40.5196 42.3536 38.94 44.0715 36.9915 44.0715M47.5065 35.5972C50.8732 36.7271 53.9631 38.6756 56.5457 41.339C56.9723 41.7771 56.9723 42.5034 56.5457 42.9416C56.3267 43.1606 56.05 43.2759 55.7732 43.2759C55.4965 43.2759 55.2083 43.1606 55.0008 42.9416C51.3805 39.1945 46.6418 37.0154 41.5688 36.7502M33.3136 38.0876C30.6157 39.1368 28.1368 40.7855 26.0384 42.9531C25.6118 43.4028 24.9201 43.4028 24.4935 42.9531C24.0669 42.515 24.0669 41.7886 24.4935 41.3505C26.6726 39.1022 29.2091 37.3612 31.9762 36.1852M40.7156 34.4673C41.8109 34.4673 42.9062 34.5711 43.9785 34.7325M42.5257 41.558C45.6387 42.0077 48.5096 43.4719 50.7694 45.8124C51.196 46.2506 51.196 46.9769 50.7694 47.4151C50.5503 47.6341 50.2736 47.7494 49.9969 47.7494C49.7202 47.7494 49.432 47.6341 49.2244 47.4151C47.6795 45.8124 45.8001 44.6941 43.7363 44.1176C43.7363 44.1176 42.7679 43.8178 41.7187 43.9446M34.6856 45.2129C33.648 45.7894 32.6795 46.5388 31.8263 47.4266C31.3997 47.8762 30.7079 47.8762 30.2813 47.4266C29.8547 46.9885 29.8547 46.2621 30.2813 45.824C31.2037 44.867 32.2183 44.0599 33.3136 43.4143M50.435 58.0569C48.5672 59.6018 44.8317 60.651 40.5196 60.651C38.7902 60.651 37.1414 60.4781 35.6772 60.1783M33.6364 59.6364C32.3912 59.2098 31.342 58.6795 30.6041 58.0569M25.5196 63.7986C25.5196 60.2936 30.143 57.342 36.4612 56.4312C36.5534 56.4197 36.6341 56.4081 36.7264 56.3966M44.1399 56.3735C50.6772 57.2037 55.5196 60.2129 55.5196 63.7986M22.4412 63.7986H58.598M48.9016 32.9915C48.9016 34.6403 47.6795 35.9777 46.1806 35.9777C44.6818 35.9777 43.4596 34.6403 43.4596 32.9915C43.4596 31.3428 45.731 26.166 46.1806 26.166C46.6072 26.166 48.9016 31.3428 48.9016 32.9915ZM42.5603 40.947C42.5603 43.9101 40.3697 46.3082 37.6603 46.3082C34.9508 46.3082 32.7602 43.9101 32.7602 40.947C32.7602 37.9838 36.8417 28.6795 37.6603 28.6795C38.4327 28.6795 42.5603 37.9954 42.5603 40.947ZM42.0646 56.143C42.0646 57.0307 41.3728 57.7456 40.5196 57.7456C39.6664 57.7456 38.9746 57.0307 38.9746 56.143C38.9746 55.2552 39.6664 54.5403 40.5196 54.5403C41.3728 54.5403 42.0646 55.2552 42.0646 56.143ZM44.4512 51.9923C44.1745 51.9923 43.8862 51.877 43.6787 51.6579C41.9377 49.8478 39.1015 49.8478 37.3605 51.6579C36.9339 52.0961 36.2421 52.0961 35.8155 51.6579C35.3889 51.2198 35.3889 50.4935 35.8155 50.0553C38.4097 47.3574 42.641 47.3574 45.2352 50.0553C45.6618 50.4935 45.6618 51.2198 45.2352 51.6579C45.0161 51.877 44.7394 51.9923 44.4627 51.9923H44.4512Z" stroke="white" stroke-linecap="round" stroke-linejoin="round"/>
</g>
<defs>
<clipPath id="clip0_1624_2109">
<rect width="81" height="80" fill="white"/>
</clipPath>
</defs>
</svg>
