<svg width="81" height="81" viewBox="0 0 81 81" fill="none" xmlns="http://www.w3.org/2000/svg">
<g clip-path="url(#clip0_1624_2114)">
<path d="M61.744 20.3057C61.744 20.3057 76.0887 31.2415 75.0117 48.3404C73.9346 65.4394 67.2667 74.8506 40.8676 79.4903C40.8676 79.4903 4.16426 76.3093 5.78043 46.6841C5.10744 31.5074 18.7779 20.3057 18.7779 20.3057C18.7779 20.3057 22.2805 23.6854 29.2161 21.3656C29.2161 21.3656 33.0545 24.2819 39.4523 24.6795C45.85 25.0771 49.4864 21.4985 49.4864 21.4985C49.4864 21.4985 55.2111 23.9513 61.744 20.3057Z" fill="#93D500"/>
<path d="M50.4446 0.982422C51.5507 2.24987 52.1611 4.2719 52.0461 5.39355C51.9333 6.51049 48.3636 11.309 48.3449 11.334C56.7085 14.386 62.3447 19.5135 62.3899 19.5547C62.4198 19.5803 62.4498 19.6062 62.4797 19.6318L62.4826 19.6309C77.599 32.4144 76.32 49.2041 76.3186 49.2227H76.3205C75.0598 79.3387 40.5598 80.9824 40.5598 80.9824C25.0635 78.9641 6.13409 69.697 4.60764 53.6299C3.1001 37.7639 8.19721 28.1426 17.6555 20.0693C17.6542 20.0684 17.6529 20.0674 17.6516 20.0664C26.6947 11.6919 33.6132 10.6494 33.6457 10.6445C28.4314 8.07462 22.0299 9.23617 16.4895 7.73633V7.73828C10.329 6.06865 11.2824 4.95801 11.2824 4.95801C17.686 6.49848 24.5099 5.98537 29.2004 6.60156C33.8909 7.21778 39.1751 9.64992 40.3303 9.9248C41.4773 10.1977 44.3475 10.1992 44.3889 10.1992C45.5083 9.34134 50.4446 0.982422 50.4446 0.982422ZM60.6028 21.1211C59.3419 21.962 57.8126 22.6794 56.0578 22.9385C52.3304 23.4881 49.0627 22.0381 49.0627 22.0381C49.0373 22.0604 41.1289 28.9765 29.302 21.9385C29.302 21.9385 24.8349 23.9254 19.718 21.3477L19.7473 21.3662C11.3067 29.1811 5.46273 36.4559 7.0305 53.4102C8.30254 67.1712 24.8884 76.4644 40.6428 78.5879C41.9714 78.4901 49.5171 77.7961 57.0344 74.1875C67.7364 69.0513 73.4064 60.6185 73.8869 49.123L73.8948 49.0146C73.9493 48.377 75.5518 32.3309 60.6028 21.1211Z" fill="#006937"/>
<path d="M36.5977 58.5796V64.2349H31.7027M52.2429 61.594C52.2429 60.5536 53.1098 59.7134 54.1635 59.7134V59.7267C55.2305 59.7267 56.0842 60.567 56.0842 61.6073C56.0842 62.6477 55.2305 63.488 54.1635 63.488C53.0965 63.4746 52.2429 62.6343 52.2429 61.594ZM52.2429 61.594H47.3479V56.3256M32.3296 56.4189V59.9534H28.1682M42.5063 58.6997V65.6487H47.2946M49.4553 54.0982L53.9768 54.0315C58.4983 54.0315 62.1662 50.8837 62.1662 46.4423C62.1662 42.0008 58.4983 38.4129 53.9768 38.4129C53.9768 38.4129 53.9768 38.4129 53.9635 38.4129C53.9635 38.2929 53.9768 38.1728 53.9768 38.0661C53.9768 32.2509 49.1619 27.5293 43.2399 27.5293C39.5587 27.5293 36.3042 29.3566 34.3703 32.1308C33.53 31.6907 32.5697 31.4506 31.5427 31.4506C28.1949 31.4506 25.474 34.1182 25.474 37.3993C25.474 37.786 25.514 38.1595 25.5807 38.5196C21.646 39.1065 18.6317 42.4276 18.6317 46.4423C18.6317 50.8837 22.2996 54.4716 26.8211 54.4716L30.3556 54.4183M36.8377 47.3759C36.8377 45.7754 38.1582 44.4816 39.7854 44.4816C41.4126 44.4816 42.733 45.7754 42.733 47.3759C42.733 48.9764 41.4126 50.2702 39.7854 50.2702C38.1582 50.2702 36.8377 48.9764 36.8377 47.3759ZM32.7831 48.9364H33.8901C34.0235 48.9364 34.1302 49.0165 34.1702 49.1365C34.2769 49.4566 34.3969 49.75 34.557 50.0435C34.6103 50.1502 34.597 50.2835 34.5036 50.3769L33.7167 51.1505C33.5033 51.3506 33.5033 51.6974 33.7167 51.8974L35.1839 53.3379C35.3973 53.5513 35.7441 53.5513 35.9441 53.3379L36.731 52.5643C36.8244 52.4709 36.9578 52.4576 37.0645 52.511C37.3579 52.6577 37.6647 52.7911 37.9848 52.8844C38.1048 52.9244 38.1849 53.0311 38.1849 53.1512V54.2449C38.1849 54.5383 38.4249 54.7784 38.7317 54.7784H40.8124C41.1058 54.7784 41.3593 54.5383 41.3593 54.2449V53.1512C41.3593 53.0311 41.4393 52.9244 41.5593 52.8844C41.8794 52.7911 42.1862 52.6577 42.4796 52.511C42.5863 52.4576 42.733 52.4709 42.8264 52.5643L43.6133 53.3379C43.8267 53.5513 44.1735 53.5513 44.3736 53.3379L45.8407 51.8974C46.0542 51.6974 46.0542 51.3506 45.8407 51.1505L45.0538 50.3769C44.9605 50.2835 44.9471 50.1502 45.0005 50.0435C45.1472 49.75 45.2806 49.4566 45.3873 49.1365C45.4273 49.0165 45.534 48.9364 45.6674 48.9364H46.7877C47.0812 48.9364 47.3346 48.6964 47.3346 48.4029V46.3622C47.3346 46.0688 47.0945 45.8287 46.7877 45.8287H45.6674C45.534 45.8287 45.4273 45.7487 45.3873 45.6287C45.2806 45.3219 45.1605 45.0151 45.0005 44.7217C44.9471 44.615 44.9605 44.4816 45.0538 44.3883L45.8407 43.6147C46.0542 43.4146 46.0542 43.0678 45.8407 42.8677L44.3736 41.4273C44.1602 41.2272 43.8267 41.2272 43.6133 41.4273L42.8264 42.2009C42.733 42.2942 42.5997 42.3076 42.4796 42.2542C42.1862 42.1075 41.8794 41.9741 41.5593 41.8807C41.4393 41.8407 41.3593 41.734 41.3593 41.614V40.5203C41.3593 40.2269 41.1192 39.9868 40.8124 39.9868H38.7317C38.4383 39.9868 38.1849 40.2269 38.1849 40.5203V41.614C38.1849 41.734 38.1048 41.8407 37.9848 41.8807C37.6647 41.9741 37.3579 42.1075 37.0645 42.2542C36.9578 42.3076 36.8111 42.2942 36.731 42.2009L35.9441 41.4273C35.7307 41.2272 35.3839 41.2272 35.1839 41.4273L33.7167 42.8677C33.5033 43.0678 33.5033 43.4146 33.7167 43.6147L34.5036 44.3883C34.597 44.4816 34.6103 44.615 34.557 44.7217C34.4103 45.0151 34.2769 45.3086 34.1702 45.6287C34.1302 45.7487 34.0235 45.8287 33.8901 45.8287H32.7831C32.4896 45.8287 32.2362 46.0688 32.2362 46.3622V48.4029C32.2362 48.6964 32.4763 48.9364 32.7831 48.9364ZM27.9415 47.3759C27.9415 53.7914 33.2499 58.9931 39.7854 58.9931C46.3209 58.9931 51.6293 53.7914 51.6293 47.3759C51.6293 40.9604 46.3209 35.7454 39.7854 35.7454C33.2499 35.7454 27.9415 40.9471 27.9415 47.3759ZM26.1675 57.8194C25.1138 57.8194 24.2469 58.6597 24.2469 59.7C24.2469 60.7404 25.1005 61.5807 26.1675 61.5807C27.2212 61.5807 28.0882 60.7404 28.0882 59.7C28.0882 58.6597 27.2212 57.8194 26.1675 57.8194ZM49.2152 63.7547C48.1615 63.7547 47.2946 64.595 47.2946 65.6353C47.2946 66.6757 48.1615 67.516 49.2152 67.5293C50.2689 67.5293 51.1358 66.689 51.1358 65.6487C51.1358 64.6083 50.2689 63.768 49.2152 63.7547ZM29.7821 62.3409C30.8357 62.3409 31.7027 63.1812 31.7027 64.2215C31.7027 65.2619 30.8357 66.1022 29.7821 66.1022C28.7284 66.1022 27.8614 65.2619 27.8614 64.2215C27.8614 63.1812 28.715 62.3409 29.7821 62.3276V62.3409Z" stroke="white" stroke-linecap="round" stroke-linejoin="round"/>
</g>
<defs>
<clipPath id="clip0_1624_2114">
<rect width="81" height="81" fill="white"/>
</clipPath>
</defs>
</svg>
